<?xml version="1.0" encoding="iso-8859-1"?>
<!-- Generator: Adobe Illustrator 19.0.0, SVG Export Plug-In . SVG Version: 6.00 Build 0)  -->
<svg version="1.1" id="Capa_1" xmlns="http://www.w3.org/2000/svg" xmlns:xlink="http://www.w3.org/1999/xlink" x="0px" y="0px"
	 viewBox="0 0 512 512" style="enable-background:new 0 0 512 512;" xml:space="preserve">
<g>
	<path style="fill:#AF8066;" d="M402.361,343.243c-6.708,10.027-20.201,12.851-30.367,6.356c-0.088-0.088-0.177-0.088-0.265-0.177
		l-1.412-0.971c9.672,6.89,12.133,20.211,5.561,30.102c-3.235,4.891-8.285,8.292-14.033,9.451
		c-5.748,1.16-11.721-0.018-16.599-3.272l-14.566-10.063c9.266,7.297,11.481,20.435,5.12,30.367
		c-3.235,4.891-8.284,8.292-14.033,9.452c-5.748,1.16-11.721-0.018-16.599-3.272l-14.301-10.152
		c0.833,0.693,1.629,1.429,2.383,2.207c8.307,7.897,9.198,20.835,2.052,29.797c-7.146,8.962-19.958,10.972-29.506,4.631
		l-36.723-24.541h-0.088L94.897,327l-68.414-53.356l52.966-70.621l167.724,0.39l61.793,52.966l87.305,56.232
		c3.036,2.069,5.546,4.82,7.327,8.033v0.088C407.309,327.903,406.836,336.523,402.361,343.243z"/>
	<g>
		<path style="fill:#FDD7AD;" d="M119.986,380.986c-3.782-4.467-5.635-10.253-5.151-16.086c0.484-5.833,3.265-11.235,7.732-15.017
			l27.502-21.255c9.302-7.876,23.227-6.721,31.103,2.581c7.876,9.302,6.721,23.227-2.581,31.103l-27.502,21.255
			C141.788,391.442,127.863,390.287,119.986,380.986z"/>
		<path style="fill:#FDD7AD;" d="M88.682,354.919c-2.993-3.535-4.46-8.114-4.077-12.73c0.383-4.616,2.584-8.891,6.119-11.885
			l21.765-16.821c3.535-2.993,8.114-4.46,12.73-4.077s8.891,2.584,11.885,6.119c6.233,7.361,5.319,18.382-2.042,24.615
			l-21.765,16.821C105.936,363.194,94.915,362.28,88.682,354.919z"/>
		<path style="fill:#FDD7AD;" d="M184.483,424.952c-6.223-7.473-5.211-18.576,2.262-24.801l22.11-17.114
			c7.371-6.344,18.489-5.513,24.834,1.857c6.223,7.473,5.211,18.576-2.262,24.801l-22.11,17.114
			C201.947,433.152,190.829,432.321,184.483,424.952z"/>
		<path style="fill:#FDD7AD;" d="M150.105,407.514c-2.993-3.535-4.46-8.114-4.077-12.73c0.383-4.616,2.584-8.891,6.119-11.885
			l32.862-25.649c7.361-6.233,18.382-5.319,24.615,2.042c6.233,7.361,5.319,18.382-2.042,24.615l-32.862,25.649
			C167.359,415.79,156.338,414.876,150.105,407.514z"/>
	</g>
	<path style="fill:#2980BA;" d="M143.537,180.727l-24.276-18.538L0,70.61v211.862l29.396,17.162l25.247,14.478
		c4.047,2.296,9.181,1.06,11.741-2.825l3.09-4.59l68.855-103.283l7.15-10.77C148.023,188.77,147.179,183.593,143.537,180.727z"/>
	<path style="fill:#3B97D3;" d="M145.479,192.644l-7.15,10.77L69.473,306.697l-3.09,4.59c-2.559,3.886-7.694,5.121-11.741,2.825
		l-25.247-14.477l89.865-137.446l24.276,18.538C147.18,183.593,148.024,188.77,145.479,192.644z"/>
	<path style="fill:#FDD7AD;" d="M403.597,320.733v-0.088l37.782-38.172l-60.999-89.286l-44.932,19.056l-35.86-15.27
		c-31.846-6.111-45.456,0.934-50.616,5.347c-1.089,0.884-2.022,1.946-2.758,3.14c-5.201,4.264-10.823,7.987-16.779,11.109
		c-6.289,3.39-9.72,10.409-8.533,17.455c1.187,7.045,6.729,12.552,13.782,13.694c16.186,2.173,32.647-0.731,47.113-8.311
		l26.687,16.974L403.597,320.733z"/>
	<path style="fill:#4C8056;" d="M392.739,162.189l-24.276,18.538c-3.643,2.866-4.487,8.044-1.942,11.918l5.032,7.592l60.999,91.454
		l13.065,19.597c2.559,3.886,7.694,5.121,11.741,2.825l25.247-14.478L512,282.472V70.61L392.739,162.189z"/>
	<path style="fill:#71C285;" d="M482.604,299.635l-25.247,14.477c-4.047,2.296-9.181,1.061-11.741-2.825l-13.065-19.597
		l-60.999-91.454l-5.032-7.592c-2.545-3.874-1.701-9.052,1.942-11.917l24.276-18.538L482.604,299.635z"/>
</g>
<g>
</g>
<g>
</g>
<g>
</g>
<g>
</g>
<g>
</g>
<g>
</g>
<g>
</g>
<g>
</g>
<g>
</g>
<g>
</g>
<g>
</g>
<g>
</g>
<g>
</g>
<g>
</g>
<g>
</g>
</svg>
